<?xml version="1.0" encoding="UTF-8"?>
<svg width="35px" height="35px" viewBox="0 0 35 35" version="1.1" xmlns="http://www.w3.org/2000/svg" xmlns:xlink="http://www.w3.org/1999/xlink">
    <title>alarm</title>
    <g id="Symbols" stroke="none" stroke-width="1" fill="none" fill-rule="evenodd">
        <g id="alarm" transform="translate(2.000000, 2.000000)" fill="#000000" fill-rule="nonzero">
            <g>
                <path d="M15.5,1.91200004 C7.13951348,1.91200004 0.362000038,8.68951348 0.362000038,17.05 C0.362000038,25.4104865 7.13951348,32.188 15.5,32.188 C23.8604865,32.188 30.638,25.4104865 30.638,17.05 C30.638,8.68951348 23.8604865,1.91200004 15.5,1.91200004 Z M15.5,4.28799996 C22.548258,4.28799996 28.262,10.001742 28.262,17.05 C28.262,24.098258 22.548258,29.812 15.5,29.812 C8.451742,29.812 2.73799996,24.098258 2.73799996,17.05 C2.73799996,10.001742 8.451742,4.28799996 15.5,4.28799996 Z" id="Oval"></path>
                <path d="M15.5,8.11200004 C16.1151071,8.11200004 16.621029,8.5794777 16.6818665,9.17853391 L16.688,9.3 L16.687,16.556 L20.9900428,20.8599572 C21.4208469,21.2907612 21.4516186,21.9701135 21.082358,22.4364245 L20.9900428,22.5400428 C20.5592388,22.9708469 19.8798865,23.0016186 19.4135755,22.632358 L19.3099572,22.5400428 L14.6599572,17.8900428 C14.4689916,17.6990772 14.3497536,17.4497922 14.3195829,17.1840492 L14.312,17.05 L14.312,9.3 C14.312,8.64388574 14.8438857,8.11200004 15.5,8.11200004 Z" id="Path"></path>
                <path d="M27.0864245,-0.932357987 L27.1900428,-0.840042829 L31.8400428,3.80995717 C32.3039857,4.27390001 32.3039857,5.02609999 31.8400428,5.49004283 C31.4092388,5.9208469 30.7298865,5.95161862 30.2635755,5.58235799 L30.1599572,5.49004283 L25.5099572,0.840042829 C25.0460143,0.376099985 25.0460143,-0.376099985 25.5099572,-0.840042829 C25.9076225,-1.23770812 26.5170685,-1.29451745 26.9752426,-1.01047081 L27.0864245,-0.932357987 Z M5.49004283,-0.840042829 C5.9208469,-0.40923876 5.95161862,0.270113546 5.58235799,0.736424507 L5.49004283,0.840042829 L0.840042829,5.49004283 C0.376099985,5.95398567 -0.376099985,5.95398567 -0.840042829,5.49004283 C-1.2708469,5.05923876 -1.30161862,4.37988645 -0.932357987,3.91357549 L-0.840042829,3.80995717 L3.80995717,-0.840042829 C4.27390001,-1.30398567 5.02609999,-1.30398567 5.49004283,-0.840042829 Z" id="Shape"></path>
            </g>
        </g>
    </g>
</svg>