<?xml version="1.0" encoding="UTF-8"?>
<svg width="26px" height="23px" viewBox="0 0 26 23" version="1.1" xmlns="http://www.w3.org/2000/svg" xmlns:xlink="http://www.w3.org/1999/xlink">
    <title>list</title>
    <g id="Symbols" stroke="none" stroke-width="1" fill="none" fill-rule="evenodd">
        <g id="list" transform="translate(1.000000, 1.000000)" fill="#000000" fill-rule="nonzero">
            <g id="Shape">
                <path d="M23,18.6144547 C23.7903194,18.6144547 24.4309999,19.2551351 24.4309999,20.0454545 C24.4309999,20.7892846 23.8634767,21.4005625 23.1378148,21.4699037 L23,21.4764544 L8.15572233,21.4764544 C7.36540291,21.4764544 6.72472244,20.835774 6.72472244,20.0454545 C6.72472244,19.3016245 7.29224563,18.6903466 8.01790749,18.6210054 L8.15572233,18.6144547 L23,18.6144547 Z M1.19746717,18.6144547 C1.98778658,18.6144547 2.62846705,19.2551351 2.62846705,20.0454545 C2.62846705,20.7892846 2.06094387,21.4005625 1.33528201,21.4699037 L1.19746717,21.4764544 L0.73358349,21.4764544 C-0.0567359237,21.4764544 -0.697416395,20.835774 -0.697416395,20.0454545 C-0.697416395,19.3016245 -0.129893209,18.6903466 0.595768651,18.6210054 L0.73358349,18.6144547 L1.19746717,18.6144547 Z M23,9.06900012 C23.7903194,9.06900012 24.4309999,9.70968059 24.4309999,10.5 C24.4309999,11.24383 23.8634767,11.8551079 23.1378148,11.9244492 L23,11.9309999 L8.15572233,11.9309999 C7.36540291,11.9309999 6.72472244,11.2903194 6.72472244,10.5 C6.72472244,9.75616996 7.29224563,9.14489207 8.01790749,9.07555083 L8.15572233,9.06900012 L23,9.06900012 Z M1.19746717,9.06900012 C1.98778658,9.06900012 2.62846705,9.70968059 2.62846705,10.5 C2.62846705,11.24383 2.06094387,11.8551079 1.33528201,11.9244492 L1.19746717,11.9309999 L0.73358349,11.9309999 C-0.0567359237,11.9309999 -0.697416395,11.2903194 -0.697416395,10.5 C-0.697416395,9.75616996 -0.129893209,9.14489207 0.595768651,9.07555083 L0.73358349,9.06900012 L1.19746717,9.06900012 Z M23,-0.47645443 C23.7903194,-0.47645443 24.4309999,0.164226041 24.4309999,0.954545455 C24.4309999,1.69837549 23.8634767,2.30965338 23.1378148,2.37899462 L23,2.38554534 L8.15572233,2.38554534 C7.36540291,2.38554534 6.72472244,1.74486487 6.72472244,0.954545455 C6.72472244,0.210715418 7.29224563,-0.400562475 8.01790749,-0.469903715 L8.15572233,-0.47645443 L23,-0.47645443 Z M1.19746717,-0.47645443 C1.98778658,-0.47645443 2.62846705,0.164226041 2.62846705,0.954545455 C2.62846705,1.69837549 2.06094387,2.30965338 1.33528201,2.37899462 L1.19746717,2.38554534 L0.73358349,2.38554534 C-0.0567359237,2.38554534 -0.697416395,1.74486487 -0.697416395,0.954545455 C-0.697416395,0.210715418 -0.129893209,-0.400562475 0.595768651,-0.469903715 L0.73358349,-0.47645443 L1.19746717,-0.47645443 Z"></path>
            </g>
        </g>
    </g>
</svg>