<?xml version="1.0" encoding="UTF-8"?>
<svg width="31px" height="33px" viewBox="0 0 31 33" version="1.1" xmlns="http://www.w3.org/2000/svg" xmlns:xlink="http://www.w3.org/1999/xlink">
    <title>settings</title>
    <g id="Symbols" stroke="none" stroke-width="1" fill="none" fill-rule="evenodd">
        <g id="settings" transform="translate(1.000000, 2.000000)" fill="#000000" fill-rule="nonzero">
            <g>
                <path d="M11.2777778,-1.18799996 L11.1512711,-1.18128105 C10.6927927,-1.13236828 10.2989702,-0.820363149 10.1507421,-0.375678573 L8.905,3.357 L8.48522331,3.57891302 C8.33830295,3.65998518 8.19305034,3.74401381 8.04955109,3.83094098 L7.648,4.085 L3.79191344,3.29559284 C3.29094372,3.19307694 2.78058027,3.42263049 2.52490462,3.86547371 L-0.697317607,9.44652632 L-0.75933227,9.5699098 C-0.940404011,9.98916004 -0.865768353,10.4809154 -0.557344507,10.8287286 L2.056,13.776 L2.04117466,14.0800749 C2.03654309,14.2197618 2.03422226,14.3597501 2.03422226,14.5 L2.04117466,14.9199251 L2.056,15.223 L-0.557344509,18.1712714 C-0.896610739,18.553866 -0.952993261,19.1106305 -0.697317605,19.5534737 L2.52490462,25.1345263 L2.5939767,25.2407248 C2.86557561,25.6133224 3.33269119,25.79838 3.79191342,25.7044071 L7.648,24.914 L8.04955121,25.1690591 C8.19305046,25.2559863 8.33830307,25.3400149 8.48522342,25.4210871 L8.905,25.642 L10.1507421,29.3756786 C10.3124455,29.860789 10.7664265,30.188 11.2777778,30.188 L17.7222222,30.188 L17.8487289,30.181281 C18.3072073,30.1323683 18.7010297,29.8203632 18.8492579,29.3756786 L20.094,25.642 L20.5147767,25.421087 C20.6616971,25.3400148 20.8069497,25.2559862 20.9504489,25.169059 L21.351,24.914 L25.2080865,25.7044071 C25.7090562,25.806923 26.2194197,25.5773695 26.4750953,25.1345263 L29.6973176,19.5534737 L29.7593322,19.4300902 C29.940404,19.01084 29.8657683,18.5190847 29.5573445,18.1712714 L26.943,15.223 L26.9588253,14.9199255 C26.9634569,14.7802385 26.9657777,14.6402501 26.9657777,14.5 L26.9588253,14.0800745 L26.943,13.776 L29.5573445,10.8287286 C29.8966107,10.446134 29.9529932,9.88936955 29.6973176,9.44652632 L26.4750953,3.86547371 L26.4060233,3.75927518 C26.1344243,3.3866776 25.6673087,3.20161993 25.2080865,3.29559284 L21.351,4.085 L20.9504491,3.83094106 C20.8069498,3.74401389 20.6616972,3.65998527 20.5147768,3.5789131 L20.094,3.357 L18.8492579,-0.375678584 C18.6875545,-0.860789025 18.2335735,-1.18799996 17.7222222,-1.18799996 L11.2777778,-1.18799996 Z M12.133,1.187 L16.866,1.187 L17.999068,4.58732284 C18.1039883,4.90208385 18.3357559,5.15862741 18.6382809,5.29486763 C19.2580432,5.57397363 19.8478277,5.91536748 20.3989288,6.31323909 L20.5183917,6.38909785 C20.7648271,6.52570295 21.0534443,6.57101554 21.3324947,6.51391208 L24.845,5.795 L27.211,9.893 L24.8324202,12.5759098 C24.6125026,12.8239135 24.5061963,13.1525175 24.5391827,13.482338 C24.57283,13.8187664 24.5897778,14.1582462 24.5897778,14.5 C24.5897778,14.8417538 24.57283,15.1812336 24.5391827,15.517662 L24.5334989,15.6587078 C24.5388881,15.9397245 24.6439194,16.2115156 24.8324202,16.4240902 L27.211,19.106 L24.845,23.204 L21.3324947,22.486088 C21.0069359,22.4194673 20.6683557,22.4922462 20.3989289,22.6867609 C19.8478276,23.0846326 19.2580431,23.4260265 18.6382809,23.7051324 L18.513123,23.7707056 C18.2721253,23.9158589 18.0889997,24.142882 17.999068,24.4126772 L16.866,27.812 L12.133,27.812 L11.0009321,24.4126772 C10.8960117,24.0979162 10.6642441,23.8413726 10.3617191,23.7051324 C9.741957,23.4260265 9.15217254,23.0846327 8.60107111,22.6867609 L8.48160816,22.6109022 C8.23517281,22.4742971 7.94655566,22.4289845 7.66750533,22.486088 L4.154,23.204 L1.788,19.106 L4.16757974,16.4240902 C4.38749736,16.1760865 4.49380365,15.8474827 4.46081731,15.5176623 C4.42717001,15.1812332 4.41022218,14.8417533 4.41022218,14.5 C4.41022218,14.1582467 4.42717001,13.8187668 4.46081731,13.4823377 L4.46650106,13.341292 C4.46111182,13.0602754 4.35608056,12.7884844 4.16757974,12.5759098 L1.788,9.893 L4.154,5.795 L7.66750531,6.51391208 C7.99306406,6.58053278 8.33164432,6.50775387 8.60107118,6.31323912 C9.15217246,5.91536739 9.74195689,5.57397357 10.3617191,5.29486765 L10.486877,5.22929448 C10.7278747,5.08414116 10.9110004,4.857118 11.0009321,4.58732283 L12.133,1.187 Z" id="Path"></path>
                <path d="M14.5,11.7008889 C12.9540936,11.7008889 11.7008889,12.9540936 11.7008889,14.5 C11.7008889,16.0459064 12.9540936,17.2991111 14.5,17.2991111 C16.0459064,17.2991111 17.2991111,16.0459064 17.2991111,14.5 C17.2991111,12.9540936 16.0459064,11.7008889 14.5,11.7008889 Z M14.5,14.0768889 C14.7336778,14.0768889 14.9231111,14.2663222 14.9231111,14.5 C14.9231111,14.7336778 14.7336778,14.9231111 14.5,14.9231111 C14.2663222,14.9231111 14.0768889,14.7336778 14.0768889,14.5 C14.0768889,14.2663222 14.2663222,14.0768889 14.5,14.0768889 Z" id="Oval"></path>
            </g>
        </g>
    </g>
</svg>